<svg width="920" height="680" viewBox="0 0 920 680" fill="none" xmlns="http://www.w3.org/2000/svg">
  <defs>
    <linearGradient id="bg" x1="50" y1="40" x2="860" y2="620" gradientUnits="userSpaceOnUse">
      <stop stop-color="#E0F2FE" />
      <stop offset="1" stop-color="#F8FAFC" />
    </linearGradient>
  </defs>
  <rect x="10" y="10" width="900" height="660" rx="28" fill="url(#bg)" stroke="#CBD5E1" stroke-width="2" />
  <rect x="70" y="70" width="340" height="190" rx="18" fill="#0F172A" />
  <text x="95" y="118" fill="#E2E8F0" font-size="24" font-family="Segoe UI, Arial, sans-serif">Control Health</text>
  <rect x="95" y="140" width="230" height="12" rx="6" fill="#22D3EE" />
  <rect x="95" y="165" width="275" height="12" rx="6" fill="#38BDF8" />
  <rect x="95" y="190" width="190" height="12" rx="6" fill="#7DD3FC" />
  <rect x="470" y="70" width="380" height="250" rx="18" fill="#FFFFFF" stroke="#CBD5E1" />
  <text x="500" y="118" fill="#0F172A" font-size="24" font-family="Segoe UI, Arial, sans-serif">Audit-Ready Evidence</text>
  <circle cx="520" cy="168" r="10" fill="#10B981" />
  <text x="545" y="176" fill="#334155" font-size="18" font-family="Segoe UI, Arial, sans-serif">Control validated</text>
  <circle cx="520" cy="208" r="10" fill="#0EA5E9" />
  <text x="545" y="216" fill="#334155" font-size="18" font-family="Segoe UI, Arial, sans-serif">Timestamped event</text>
  <circle cx="520" cy="248" r="10" fill="#6366F1" />
  <text x="545" y="256" fill="#334155" font-size="18" font-family="Segoe UI, Arial, sans-serif">Verification record</text>
  <rect x="70" y="320" width="780" height="290" rx="18" fill="#FFFFFF" stroke="#CBD5E1" />
  <text x="95" y="365" fill="#0F172A" font-size="24" font-family="Segoe UI, Arial, sans-serif">Continuous Assurance Timeline</text>
  <line x1="110" y1="435" x2="810" y2="435" stroke="#94A3B8" stroke-width="4" />
  <circle cx="170" cy="435" r="14" fill="#22C55E" />
  <circle cx="320" cy="435" r="14" fill="#0EA5E9" />
  <circle cx="470" cy="435" r="14" fill="#0EA5E9" />
  <circle cx="620" cy="435" r="14" fill="#6366F1" />
  <circle cx="770" cy="435" r="14" fill="#22C55E" />
  <text x="142" y="490" fill="#334155" font-size="16" font-family="Segoe UI, Arial, sans-serif">Ingest</text>
  <text x="282" y="490" fill="#334155" font-size="16" font-family="Segoe UI, Arial, sans-serif">Validate</text>
  <text x="433" y="490" fill="#334155" font-size="16" font-family="Segoe UI, Arial, sans-serif">Correlate</text>
  <text x="589" y="490" fill="#334155" font-size="16" font-family="Segoe UI, Arial, sans-serif">Verify</text>
  <text x="741" y="490" fill="#334155" font-size="16" font-family="Segoe UI, Arial, sans-serif">Export</text>
</svg>
